<svg width="613" height="100" viewBox="0 0 613 100" fill="none" xmlns="http://www.w3.org/2000/svg">
<path d="M482.2 97.3502H461.887L451.027 79.8476C449.75 77.8035 448.77 75.5891 448.089 73.2043C447.493 70.7343 447.195 68.3495 447.195 66.0499C447.195 63.58 447.493 61.1526 448.089 58.7678C448.77 56.2979 449.75 53.9982 451.027 51.869L461.759 34.1108H482.2L466.997 59.0233C465.379 61.6636 464.57 63.9206 464.57 65.7944C464.57 67.7533 465.507 70.2659 467.38 73.332L482.2 97.3502ZM430.075 97.3502H409.762L424.582 73.332C426.456 70.2659 427.393 67.7533 427.393 65.7944C427.393 63.9206 426.583 61.6636 424.965 59.0233L409.762 34.1108H430.203L440.935 51.869C442.212 53.9982 443.149 56.2979 443.745 58.7678C444.427 61.1526 444.767 63.58 444.767 66.0499C444.767 68.3495 444.427 70.7343 443.745 73.2043C443.149 75.5891 442.212 77.8035 440.935 79.8476L430.075 97.3502ZM457.543 73.5875H435.952V57.3625H457.543V73.5875Z" fill="#2563EB"/>
<path d="M33.9832 31.6836C40.2006 31.6836 45.8645 33.1953 50.9748 36.2189C56.085 39.2425 60.1519 43.3094 63.1755 48.4196C66.1991 53.4873 67.7108 59.1086 67.7108 65.2835C67.7108 69.9253 66.8378 74.2903 65.0918 78.3785C63.3458 82.4667 60.9185 86.0652 57.8097 89.1739C54.7436 92.24 51.1664 94.6461 47.0782 96.3921C43.0326 98.1381 38.6676 99.0111 33.9832 99.0111C29.9801 99.0111 26.4243 98.1168 23.3155 96.3282C20.2494 94.4971 17.673 92.1336 15.5863 89.2378V97.3503H0V1.53307H15.5863V41.4569C17.673 38.5611 20.2494 36.2189 23.3155 34.4303C26.4243 32.5991 29.9801 31.6836 33.9832 31.6836ZM33.7915 83.9359C37.1132 83.9359 40.1155 83.1055 42.7984 81.4446C45.5238 79.7412 47.6957 77.4842 49.3139 74.6736C50.9322 71.8629 51.7413 68.7329 51.7413 65.2835C51.7413 61.8766 50.9322 58.7679 49.3139 55.9573C47.6957 53.104 45.5238 50.847 42.7984 49.1862C40.0729 47.5253 37.0706 46.6949 33.7915 46.6949C30.555 46.6949 27.6592 47.5466 25.1041 49.2501C22.549 50.9109 20.5475 53.1679 19.0996 56.0211C17.6517 58.8318 16.9277 61.9192 16.9277 65.2835C16.9277 68.7329 17.6517 71.8842 19.0996 74.7374C20.5475 77.5481 22.549 79.7838 25.1041 81.4446C27.6592 83.1055 30.555 83.9359 33.7915 83.9359Z" fill="#020617"/>
<path d="M77.7906 97.3503L77.7267 33.4722H93.313L93.3769 39.1573C95.5487 36.8577 98.1464 35.0478 101.17 33.7277C104.194 32.3649 107.451 31.6836 110.943 31.6836C113.286 31.6836 115.628 32.0242 117.97 32.7056L111.838 48.4196C110.219 47.7809 108.601 47.4615 106.983 47.4615C104.47 47.4615 102.171 48.079 100.084 49.3139C98.04 50.5063 96.4004 52.1459 95.1655 54.2325C93.9731 56.2766 93.3769 58.555 93.3769 61.0675V97.3503H77.7906Z" fill="#020617"/>
<path d="M124.887 33.4722H140.473V97.3503H124.887V33.4722ZM132.808 25.2319C130.508 25.2319 128.57 24.4866 126.995 22.9961C125.419 21.4631 124.631 19.5467 124.631 17.2471C124.631 14.9901 125.419 13.095 126.995 11.5619C128.57 10.0289 130.487 9.26233 132.744 9.26233C135.001 9.26233 136.896 10.0289 138.429 11.5619C140.005 13.095 140.792 14.9901 140.792 17.2471C140.792 19.5467 140.026 21.4631 138.493 22.9961C136.96 24.4866 135.065 25.2319 132.808 25.2319Z" fill="#020617"/>
<path d="M182.437 99.0111C176.56 99.0111 171.194 97.4994 166.34 94.4758C161.528 91.4522 157.674 87.3853 154.778 82.2751C151.925 77.1648 150.498 71.5222 150.498 65.3473C150.498 60.7055 151.328 56.3618 152.989 52.3162C154.65 48.228 156.928 44.6508 159.824 41.5847C162.763 38.4759 166.169 36.0486 170.045 34.3026C173.92 32.5566 178.051 31.6836 182.437 31.6836C187.419 31.6836 191.976 32.7482 196.107 34.8775C200.28 36.9642 203.815 39.8387 206.711 43.501C209.607 47.1634 211.714 51.3367 213.035 56.0211C214.355 60.7055 214.653 65.6029 213.929 70.7131H167.234C167.83 73.0979 168.81 75.2485 170.172 77.1648C171.535 79.0386 173.26 80.5503 175.347 81.7001C177.433 82.8074 179.797 83.3823 182.437 83.4249C185.162 83.4674 187.632 82.8287 189.847 81.5085C192.104 80.1458 193.978 78.3146 195.468 76.015L211.374 79.7199C208.776 85.3838 204.901 90.0256 199.748 93.6454C194.595 97.2225 188.825 99.0111 182.437 99.0111ZM166.723 59.0234H198.151C197.683 56.4683 196.682 54.1687 195.149 52.1246C193.658 50.0379 191.806 48.3771 189.591 47.1421C187.377 45.9071 184.992 45.2896 182.437 45.2896C179.882 45.2896 177.518 45.9071 175.347 47.1421C173.175 48.3345 171.322 49.974 169.789 52.0607C168.299 54.1048 167.277 56.4257 166.723 59.0234Z" fill="#020617"/>
<path d="M243.897 20.0577V33.4722H261.336V49.0584H243.897V97.3503H228.31V49.0584H221.348V33.4722H228.31V20.0577C228.31 16.3954 229.205 13.0524 230.993 10.0289C232.825 6.96272 235.273 4.53535 238.339 2.74676C241.406 0.915586 244.791 0 248.496 0C251.179 0 253.84 0.553611 256.481 1.66083C259.121 2.76805 261.463 4.47147 263.507 6.77108L252.265 17.7581C251.882 17.0342 251.328 16.5019 250.604 16.1612C249.923 15.7779 249.22 15.5863 248.496 15.5863C247.261 15.5863 246.175 16.0334 245.238 16.9277C244.344 17.7794 243.897 18.8228 243.897 20.0577Z" fill="#020617"/>
<path d="M306.962 31.6836C313.18 31.6836 318.844 33.1953 323.954 36.2189C329.064 39.2425 333.131 43.3094 336.155 48.4196C339.178 53.4873 340.69 59.1086 340.69 65.2835C340.69 69.9253 339.817 74.2903 338.071 78.3785C336.325 82.4667 333.898 86.0652 330.789 89.1739C327.723 92.24 324.146 94.6461 320.057 96.3921C316.012 98.1381 311.647 99.0111 306.962 99.0111C302.959 99.0111 299.404 98.1168 296.295 96.3282C293.229 94.4971 290.652 92.1336 288.566 89.2378V97.3503H272.979V1.53307H288.566V41.4569C290.652 38.5611 293.229 36.2189 296.295 34.4303C299.404 32.5991 302.959 31.6836 306.962 31.6836ZM306.771 83.9359C310.092 83.9359 313.095 83.1055 315.778 81.4446C318.503 79.7412 320.675 77.4842 322.293 74.6736C323.911 71.8629 324.721 68.7329 324.721 65.2835C324.721 61.8766 323.911 58.7679 322.293 55.9573C320.675 53.104 318.503 50.847 315.778 49.1862C313.052 47.5253 310.05 46.6949 306.771 46.6949C303.534 46.6949 300.639 47.5466 298.083 49.2501C295.528 50.9109 293.527 53.1679 292.079 56.0211C290.631 58.8318 289.907 61.9192 289.907 65.2835C289.907 68.7329 290.631 71.8842 292.079 74.7374C293.527 77.5481 295.528 79.7838 298.083 81.4446C300.639 83.1055 303.534 83.9359 306.771 83.9359Z" fill="#020617"/>
<path d="M379.062 99.0111C373.185 99.0111 367.819 97.4994 362.965 94.4758C358.152 91.4522 354.298 87.4066 351.403 82.3389C348.549 77.2287 347.123 71.5861 347.123 65.4112C347.123 60.7268 347.953 56.3618 349.614 52.3162C351.275 48.228 353.553 44.6508 356.449 41.5847C359.387 38.4759 362.794 36.0486 366.67 34.3026C370.545 32.5566 374.676 31.6836 379.062 31.6836C384.939 31.6836 390.283 33.1953 395.095 36.2189C399.95 39.2425 403.804 43.3094 406.657 48.4196C409.553 53.5299 411.001 59.1938 411.001 65.4112C411.001 70.053 410.171 74.3968 408.51 78.4424C406.849 82.488 404.549 86.0652 401.611 89.1739C398.715 92.24 395.33 94.6461 391.454 96.3921C387.622 98.1381 383.491 99.0111 379.062 99.0111ZM379.062 83.4249C382.171 83.4249 384.96 82.5945 387.43 80.9336C389.9 79.2728 391.838 77.0796 393.243 74.3542C394.691 71.6287 395.415 68.6477 395.415 65.4112C395.415 62.0896 394.669 59.066 393.179 56.3405C391.731 53.5725 389.751 51.3793 387.238 49.7611C384.768 48.1002 382.043 47.2698 379.062 47.2698C375.996 47.2698 373.228 48.1002 370.758 49.7611C368.288 51.4219 366.329 53.6364 364.881 56.4044C363.433 59.1725 362.709 62.1747 362.709 65.4112C362.709 68.7755 363.454 71.8203 364.945 74.5458C366.435 77.2713 368.416 79.4431 370.885 81.0614C373.398 82.637 376.124 83.4249 379.062 83.4249Z" fill="#020617"/>
<path d="M497.366 99.0111C495.152 99.0111 493.257 98.2446 491.681 96.7115C490.148 95.1359 489.381 93.2195 489.381 90.9625C489.381 88.7906 490.148 86.9169 491.681 85.3412C493.257 83.7655 495.152 82.9777 497.366 82.9777C499.581 82.9777 501.476 83.7655 503.051 85.3412C504.627 86.9169 505.415 88.7906 505.415 90.9625C505.415 93.2195 504.627 95.1359 503.051 96.7115C501.476 98.2446 499.581 99.0111 497.366 99.0111Z" fill="#020617"/>
<path d="M567.923 33.4722H583.509V97.3503H567.923L567.22 89.4294C565.474 92.2826 563.153 94.6035 560.257 96.3921C557.404 98.1381 554.018 99.0111 550.101 99.0111C545.374 99.0111 540.945 98.1168 536.814 96.3282C532.683 94.5397 529.042 92.0697 525.891 88.9184C522.782 85.7671 520.333 82.126 518.545 77.9952C516.799 73.8644 515.926 69.4355 515.926 64.7086C515.926 60.1519 516.756 55.8721 518.417 51.8691C520.12 47.866 522.484 44.3527 525.508 41.3292C528.531 38.3056 532.023 35.9421 535.984 34.2387C539.944 32.5353 544.203 31.6836 548.759 31.6836C552.975 31.6836 556.744 32.6204 560.066 34.4942C563.43 36.368 566.283 38.7527 568.625 41.6486L567.923 33.4722ZM549.717 83.9998C553.039 83.9998 555.977 83.1693 558.533 81.5085C561.088 79.8477 563.089 77.6119 564.537 74.8013C565.985 71.9481 566.709 68.8181 566.709 65.4112C566.709 61.9618 565.985 58.8318 564.537 56.0211C563.089 53.1679 561.066 50.9109 558.469 49.2501C555.914 47.5892 552.996 46.7588 549.717 46.7588C546.438 46.7588 543.436 47.6105 540.711 49.3139C538.028 50.9748 535.877 53.2105 534.259 56.0211C532.683 58.8318 531.895 61.9618 531.895 65.4112C531.895 68.8606 532.704 71.9907 534.323 74.8013C535.941 77.6119 538.092 79.8477 540.774 81.5085C543.5 83.1693 546.481 83.9998 549.717 83.9998Z" fill="#020617"/>
<path d="M596.238 33.4722H611.824V97.3503H596.238V33.4722ZM604.159 25.2319C601.859 25.2319 599.921 24.4866 598.346 22.9961C596.77 21.4631 595.982 19.5467 595.982 17.2471C595.982 14.9901 596.77 13.095 598.346 11.5619C599.921 10.0289 601.838 9.26233 604.095 9.26233C606.352 9.26233 608.247 10.0289 609.78 11.5619C611.355 13.095 612.143 14.9901 612.143 17.2471C612.143 19.5467 611.377 21.4631 609.844 22.9961C608.311 24.4866 606.416 25.2319 604.159 25.2319Z" fill="#020617"/>
</svg>
